<?xml version="1.0" encoding="iso-8859-1"?>
<!-- Generator: Adobe Illustrator 26.4.1, SVG Export Plug-In . SVG Version: 6.00 Build 0)  -->
<svg version="1.1" id="Layer_1" xmlns="http://www.w3.org/2000/svg" xmlns:xlink="http://www.w3.org/1999/xlink" x="0px" y="0px"
	 viewBox="0 0 400 250" style="enable-background:new 0 0 400 250;" xml:space="preserve">
<g>
	<ellipse style="fill:#FFFFFF;" cx="229.577" cy="126.316" rx="142.13" ry="98.883"/>
	<path style="fill:#FFFFFF;" d="M215.226,226.429c0,0-56.127,0.267-67.353-8.285c0,0-47.039-17.207-53.722-28.865
		c0,0-31.166-36.616-36.653-54.078c0,0-13.498-64.363-13.327-72.698l-0.002-8.147c0,0,27.358-26.086,27.361-26.089
		c1.464-1.108,19.489,27.696,21.365,29.625c1.687,1.735,3.457,3.386,5.199,5.065c1.21,1.166,6.046,7.448,7.754,7.459
		c-0.001,0-11.074-0.074-11.074-0.074l-0.356,5.443l1.425,4.535v4.276L215.226,226.429z"/>
	<g>
		<path style="fill:#ED1C24;" d="M41.148,72.179H27.864l21.157-23.125c0,0-17.219,176.143,161.381,176.143
			c0,0-136.288-9.349-121.528-172.699l17.712,18.697h-9.84c0,0-13.777,138.256,115.623,149.081
			c129.401,10.826,153.509-80.199,153.509-80.199s17.71-105.29-129.4-111.195c0,0-77.245-6.396-131.859,57.565
			c0,0-3.198,3.568-3.567-3.813c0,0,44.651-59.78,134.689-60.887c90.039-1.107,140.224,53.138,137.273,104.431
			c-2.952,51.293-53.507,96.681-133.213,101.847C160.093,233.191,46.068,214.371,41.148,72.179z"/>
		<path style="fill:#191771;" d="M57.877,41.92L71.53,28.267l11.809,14.761c0,0-27.307,142.068,99.264,177.124
			C182.603,220.151,49.512,214.371,57.877,41.92z"/>
		<g>
			<path style="fill:#08369B;" d="M206.315,139.044L181.21,88.147c-1.76-3.505-6.357-12.362-16.32-12.362
				c-9.349,0-14.662,12.362-14.662,12.362l-27.424,50.499c-1.401,2.577-0.022,6.037,3.082,7.72l0.208,0.113
				c3.102,1.687,6.754,0.96,8.154-1.617l30.799-56.715h1.645l27.942,56.657c1.297,2.632,4.918,3.5,8.084,1.937l0.213-0.104
				C206.095,145.078,207.612,141.676,206.315,139.044z"/>
			<path style="fill:#08369B;" d="M339.465,139.044l-25.104-50.897c-1.357-2.703-4.414-8.572-10.305-11.125l10.432-19.341
				c1.842-3.41,0.815-7.536-2.291-9.214l-0.207-0.111c-3.11-1.676-7.121-0.268-8.962,3.144l-47.075,87.146
				c-1.402,2.577-0.02,6.037,3.083,7.72l0.207,0.113c3.102,1.687,6.755,0.96,8.155-1.617l15.475-28.494l17.148,0.098
				c2.19,0.017,3.975-2.837,3.988-6.368v-0.234c0.012-3.532-1.756-6.405-3.946-6.417l-10.142-0.06l8.276-15.239h1.644l27.944,56.657
				c1.296,2.632,4.918,3.5,8.083,1.937l0.214-0.104C339.246,145.078,340.763,141.676,339.465,139.044z"/>
			<path style="fill:#08369B;" d="M271.767,76.937l-0.207-0.113c-3.102-1.686-6.754-0.96-8.155,1.617l-30.797,56.716h-1.645
				l-10.623-21.541l18.591,0.081c2.937,0.017,5.326-2.837,5.344-6.368v-0.234c0.015-3.531-2.353-6.404-5.286-6.416l-25.084-0.11
				L203.019,78.5c-1.297-2.632-4.918-3.5-8.084-1.937l-0.213,0.104c-3.165,1.559-4.681,4.961-3.384,7.593l25.104,50.898
				c1.76,3.506,7.12,12.362,16.32,12.362c9.251,0,14.662-12.362,14.662-12.362l27.423-50.499
				C276.249,82.079,274.87,78.621,271.767,76.937z"/>
		</g>
		<g>
			<g>
				<path style="fill:#191771;" d="M132.129,161.685c0.584-0.584,2.193-0.627,2.193-0.627c0.007-0.01-0.126-0.212-0.203-0.32
					c-0.178-0.248-0.33-0.452-0.461-0.583c0.264-0.264,0.396-0.396,0.66-0.66c0.461,0.096,1.12,0.38,1.972,0.828
					c1.042,0.547,1.896,1.12,2.549,1.73c2.096,1.957,2.593,3.546,1.425,4.876c-1.641,1.869-2.461,2.803-4.101,4.672
					c-0.819-0.721-1.227-1.085-2.036-1.823c1.575-1.731,2.363-2.596,3.938-4.327c0.691-0.759,0.542-1.581-0.432-2.494
					c-0.449-0.42-0.911-0.665-1.378-0.743c-0.506-0.084-0.932,0.038-1.264,0.383c-1.618,1.679-2.427,2.518-4.045,4.196
					c-0.798-0.77-1.194-1.159-1.981-1.946C130.231,163.582,130.864,162.95,132.129,161.685z"/>
				<path style="fill:#191771;" d="M140.951,169.362c1.537,1.314,2.315,1.955,3.885,3.207c-0.342,0.431-0.514,0.646-0.856,1.076
					c-0.776-0.618-1.162-0.931-1.929-1.565c-0.397,0.483-0.548,1.037-0.442,1.664c0.105,0.626,0.467,1.19,1.079,1.678
					c1.336,1.063,2.594,0.818,3.754-0.696c1.271-1.658,1.188-3.026-0.223-4.153c-0.924-0.738-1.835-0.863-2.752-0.365
					c-0.675-0.696-1.01-1.047-1.675-1.755c0.857-0.457,1.77-0.594,2.736-0.418c0.967,0.176,1.899,0.627,2.806,1.35
					c1.274,1.016,2.024,2.124,2.251,3.367c0.216,1.186-0.071,2.335-0.884,3.435c-0.807,1.092-1.833,1.701-3.093,1.8
					c-1.304,0.103-2.649-0.379-3.997-1.455c-1.411-1.126-2.12-2.399-2.117-3.769C139.497,171.625,139.988,170.492,140.951,169.362z"
					/>
				<path style="fill:#191771;" d="M153.89,175.722c-0.741,2.444-1.097,3.673-1.778,6.144c0.182,0.124,0.274,0.186,0.456,0.31
					c0.579,0.39,1.177,0.414,1.778,0.083c0.446-0.246,0.845-0.635,1.195-1.171c1.083-1.656,1.088-2.831,0.028-3.546
					c-0.079-0.053-0.173-0.135-0.278-0.214c-0.215-0.163-0.463-0.264-0.683-0.309c0.192-0.521,0.289-0.782,0.483-1.302
					c0.56,0.064,1.164,0.316,1.817,0.753c1.158,0.775,1.772,1.747,1.844,2.941c0.059,0.979-0.237,2.004-0.9,3.058
					c-0.569,0.906-1.305,1.557-2.215,1.935c-1.107,0.46-2.195,0.341-3.236-0.351c-1.137-0.756-1.702-1.141-2.826-1.926
					c0.883-3.151,1.35-4.715,2.33-7.82C152.696,174.882,153.093,175.164,153.89,175.722z"/>
				<path style="fill:#191771;" d="M159.653,188.586c-0.917-0.538-1.374-0.811-2.283-1.366c1.806-2.966,2.71-4.45,4.516-7.415
					c0.81,0.494,1.216,0.738,2.033,1.217c-0.332,0.565-0.497,0.848-0.829,1.413c1.298-0.654,2.462-0.684,3.524-0.09
					c1.998,1.118,2.569,2.48,1.682,4.16c-1.125,2.131-1.687,3.197-2.812,5.328c-0.945-0.499-1.415-0.753-2.353-1.269
					c1.042-1.893,1.563-2.839,2.605-4.732c0.57-1.036,0.412-1.795-0.465-2.291c-0.566-0.32-1.179-0.368-1.842-0.149
					c-0.601,0.198-1.049,0.537-1.336,1.027C161.116,186.086,160.629,186.919,159.653,188.586z"/>
				<path style="fill:#191771;" d="M163.815,195.541c-0.873-0.459-1.308-0.692-2.175-1.166c0.227-0.415,0.34-0.623,0.566-1.038
					c0.022-0.041,0.046-0.084,0.073-0.133c0.028-0.051,0.045-0.082,0.052-0.095c0.158-0.29,0.088-0.516-0.214-0.683
					c-0.254-0.14-0.382-0.211-0.636-0.352c0.388-0.315,0.581-0.474,0.967-0.791c0.621,0.344,0.932,0.513,1.556,0.849
					c0.395,0.213,0.651,0.376,0.763,0.492c0.25,0.26,0.285,0.56,0.109,0.896C164.452,194.329,164.24,194.733,163.815,195.541z"/>
				<path style="fill:#191771;" d="M175.975,196.867c-0.859-0.372-1.288-0.562-2.143-0.948c0.228-0.623,0.342-0.934,0.571-1.557
					c-1.218,0.794-2.413,0.92-3.557,0.373c-0.981-0.469-1.661-1.098-2.038-1.856c-0.389-0.782-0.387-1.564,0.005-2.335
					c1.088-2.142,1.632-3.214,2.72-5.356c0.887,0.451,1.333,0.672,2.226,1.107c-0.94,1.932-1.409,2.898-2.349,4.83
					c-0.52,1.07-0.282,1.853,0.722,2.327c0.613,0.29,1.231,0.292,1.845,0.005c0.538-0.25,0.926-0.644,1.167-1.173
					c0.8-1.76,1.199-2.639,1.999-4.399c0.911,0.414,1.368,0.617,2.285,1.014C178.047,192.086,177.356,193.68,175.975,196.867z"/>
				<path style="fill:#191771;" d="M177.905,197.687c1.337-3.206,2.006-4.809,3.344-8.013c0.912,0.38,1.369,0.566,2.285,0.929
					c-1.282,3.227-1.923,4.842-3.205,8.07C179.356,198.287,178.872,198.09,177.905,197.687z"/>
				<path style="fill:#191771;" d="M186.818,192.88c-0.113,2.543-0.154,3.818-0.203,6.374c0.202,0.071,0.303,0.107,0.505,0.177
					c0.64,0.222,1.211,0.088,1.701-0.389c0.363-0.353,0.647-0.833,0.85-1.44c0.626-1.877,0.349-3.009-0.828-3.417
					c-0.087-0.03-0.196-0.084-0.315-0.133c-0.242-0.099-0.502-0.132-0.722-0.117c0.058-0.551,0.087-0.827,0.147-1.377
					c0.546-0.086,1.177-0.004,1.9,0.244c1.281,0.44,2.093,1.212,2.452,2.344c0.293,0.929,0.259,1.99-0.114,3.179
					c-0.321,1.021-0.861,1.839-1.632,2.442c-0.937,0.733-1.996,0.904-3.147,0.513c-1.258-0.428-1.885-0.649-3.135-1.104
					c0.08-3.26,0.146-4.885,0.33-8.124C185.489,192.39,185.931,192.556,186.818,192.88z"/>
				<path style="fill:#191771;" d="M187.178,188.688c2.96,1.109,4.453,1.62,7.459,2.557c-0.157,0.501-0.235,0.752-0.392,1.253
					c-3.297-1.027-4.934-1.592-8.176-2.825C186.516,189.281,186.737,189.084,187.178,188.688z"/>
				<path style="fill:#191771;" d="M201.964,205.43c-0.902-0.209-1.352-0.317-2.252-0.54c0.114-0.653,0.171-0.98,0.286-1.633
					c-1.048,1.002-2.188,1.344-3.394,1.018c-1.037-0.28-1.806-0.774-2.302-1.446c-0.513-0.695-0.647-1.463-0.401-2.292
					c0.685-2.303,1.027-3.455,1.712-5.757c0.94,0.278,1.41,0.414,2.354,0.676c-0.577,2.069-0.865,3.104-1.442,5.173
					c-0.319,1.146,0.048,1.87,1.106,2.152c0.648,0.172,1.248,0.058,1.793-0.333c0.479-0.344,0.791-0.801,0.932-1.365
					c0.471-1.874,0.706-2.811,1.177-4.685c0.958,0.24,1.438,0.355,2.4,0.578C203.146,200.356,202.752,202.047,201.964,205.43z"/>
				<path style="fill:#191771;" d="M205.758,195.086c-0.302-0.067-0.565-0.085-0.779-0.045c-0.103,0.019-0.254,0.075-0.45,0.162
					c-0.251-0.393-0.375-0.589-0.621-0.983c0.94-0.515,1.993-0.641,3.18-0.387c0.596,0.128,1.103,0.355,1.514,0.667
					c0.506,0.383,0.727,0.816,0.629,1.311c-0.027,0.139-0.172,0.387-0.433,0.739c-0.262,0.354-0.425,0.685-0.487,0.996
					c-0.713,3.547-1.069,5.321-1.781,8.869c-1.015-0.203-1.521-0.308-2.533-0.529c0.783-3.581,1.174-5.372,1.957-8.952
					c0.054-0.247,0.256-0.537,0.503-0.863c0.048-0.063,0.081-0.142,0.098-0.221C206.635,195.472,206.37,195.221,205.758,195.086z"/>
				<path style="fill:#191771;" d="M211.092,207.255c-1.019-0.172-1.528-0.262-2.544-0.451c0.637-3.414,0.956-5.121,1.594-8.534
					c0.958,0.178,1.438,0.263,2.399,0.425c-0.205,1.209-0.307,1.814-0.512,3.023c0.546-0.351,1.327-0.625,2.338-0.833
					c1.232-0.253,1.898-0.794,2.011-1.597c0.993,0.14,1.49,0.205,2.485,0.328c-0.038,0.306-0.229,0.633-0.574,0.98
					c-0.439,0.442-1.655,0.9-1.655,0.9c-0.002,0.021,0.624,0.33,0.796,0.498c0.515,0.503,0.726,1.177,0.621,2.011
					c-0.211,1.677-0.316,2.516-0.526,4.193c-1.035-0.129-1.552-0.198-2.585-0.345c0.207-1.448,0.311-2.172,0.518-3.621
					c0.167-1.17-0.242-1.825-1.225-1.975c-0.624-0.095-1.213,0.106-1.765,0.602c-0.493,0.443-0.791,0.942-0.886,1.503
					C211.386,205.519,211.288,206.098,211.092,207.255z"/>
				<path style="fill:#191771;" d="M217.688,194.767c0.075,0.163,0.1,0.326,0.078,0.489c-0.032,0.236-0.337,0.596-0.337,0.596
					c0.002,0.004,0.239-0.008,0.465-0.014c0.373-0.01,0.665-0.029,0.869-0.06c1.055-0.163,1.79-0.427,2.207-0.775
					c-0.065,0.576-0.097,0.865-0.162,1.441c-0.711,0.332-1.555,0.523-2.531,0.562c-0.475,0.02-1.141-0.029-1.991-0.151
					c-0.354-0.051-0.672-0.11-0.957-0.173c0.024-0.157,0.036-0.236,0.06-0.393c0.261-0.159,0.406-0.333,0.434-0.524
					c0.026-0.176-0.03-0.331-0.164-0.45c-0.111-0.098-0.276-0.159-0.481-0.191c0.243-0.411,0.364-0.617,0.605-1.029
					c0.223,0.005,0.455,0.024,0.69,0.058c0.26,0.038,0.442,0.068,0.54,0.099C217.354,194.36,217.583,194.538,217.688,194.767z"/>
				<path style="fill:#191771;" d="M220.329,204.022c0.09-0.821,1.24-1.871,1.24-1.871c-0.001-0.013-0.216-0.086-0.332-0.12
					c-0.273-0.081-0.501-0.142-0.671-0.16c0.041-0.371,0.061-0.557,0.102-0.928c0.39-0.217,1.034-0.413,1.916-0.603
					c1.077-0.232,2.033-0.325,2.865-0.261c2.673,0.205,3.969,1.137,3.882,2.905c-0.122,2.484-0.183,3.726-0.304,6.21
					c-1.025-0.05-1.537-0.079-2.56-0.146c0.154-2.336,0.231-3.504,0.385-5.839c0.068-1.024-0.521-1.571-1.763-1.669
					c-0.572-0.045-1.051,0.055-1.439,0.29c-0.419,0.253-0.661,0.616-0.705,1.093c-0.216,2.322-0.323,3.483-0.539,5.805
					c-1.027-0.095-1.54-0.147-2.566-0.259C220.036,206.69,220.134,205.801,220.329,204.022z"/>
				<path style="fill:#191771;" d="M223.332,211.836c0.004-0.043,0.009-0.104,0.016-0.184c0.007-0.083,0.013-0.148,0.016-0.191
					c0.033-0.387-0.127-0.594-0.48-0.625c-0.238-0.021-0.357-0.032-0.595-0.053c0.296-0.436,0.443-0.654,0.736-1.091
					c0.342,0.03,0.512,0.044,0.854,0.072c0.917,0.075,1.352,0.381,1.304,0.921c-0.004,0.049-0.017,0.12-0.027,0.193
					c-0.009,0.066-0.009,0.118-0.01,0.14c-0.039,0.529,0.195,0.814,0.701,0.849c0.558,0.038,0.852-0.172,0.881-0.624
					c0.031-0.484,0.046-0.727,0.076-1.211c0.988,0.062,1.483,0.089,2.472,0.136c-0.028,0.606-0.043,0.909-0.071,1.515
					c-0.033,0.703-0.39,1.17-1.072,1.4c-0.472,0.159-1.208,0.216-2.199,0.149c-0.606-0.041-1.163-0.16-1.654-0.359
					C223.615,212.605,223.297,212.251,223.332,211.836z"/>
				<path style="fill:#191771;" d="M228.464,195.806c0.087,0.157,0.126,0.318,0.117,0.481c-0.014,0.238-0.289,0.62-0.289,0.62
					c0.002,0.004,0.236-0.026,0.461-0.05c0.369-0.039,0.659-0.08,0.862-0.127c1.038-0.243,1.747-0.565,2.134-0.944
					c-0.02,0.58-0.03,0.87-0.049,1.449c-0.679,0.386-1.505,0.643-2.474,0.757c-0.473,0.057-1.139,0.06-1.994,0.004
					c-0.356-0.023-0.677-0.057-0.965-0.098c0.012-0.159,0.017-0.238,0.029-0.396c0.248-0.179,0.376-0.364,0.39-0.557
					c0.012-0.178-0.055-0.328-0.197-0.435c-0.117-0.089-0.287-0.138-0.496-0.153c0.211-0.429,0.315-0.644,0.523-1.073
					c0.223-0.013,0.454-0.011,0.693,0.005c0.26,0.017,0.445,0.034,0.544,0.057C228.1,195.427,228.342,195.586,228.464,195.806z"/>
				<path style="fill:#191771;" d="M236.637,200.964c-0.182,0.52-0.274,0.78-0.46,1.3c-0.448-0.187-0.838-0.282-1.169-0.285
					c-0.681-0.007-1,0.269-1.035,0.75c-0.005,0.069-0.014,0.124-0.014,0.161c-0.007,0.408,0.26,0.725,0.801,0.948
					c0.419,0.173,0.899,0.267,1.437,0.268c-0.001,0.469-0.001,0.703-0.002,1.172c-0.552-0.001-0.951,0.044-1.197,0.133
					c-0.407,0.147-0.661,0.437-0.753,0.873c-0.019,0.085-0.028,0.176-0.03,0.269c-0.014,0.953,0.687,1.445,2.105,1.447
					c1.175,0.001,1.759-0.597,1.746-1.773c-0.024-2.217-0.036-3.325-0.06-5.541c0.982-0.01,1.473-0.02,2.454-0.047
					c0.065,2.331,0.098,3.497,0.163,5.829c0.058,2.059-1.387,3.149-4.33,3.145c-3.269-0.004-4.867-1.076-4.801-3.062
					c0.017-0.516,0.263-0.966,0.707-1.356c0.139-0.122,0.672-0.425,0.672-0.425c-0.006-0.074-1.376-1.028-1.336-2.191
					c0.022-0.651,0.281-1.163,0.765-1.536c0.483-0.372,1.1-0.551,1.846-0.539C235.19,200.521,236.019,200.669,236.637,200.964z"/>
				<path style="fill:#191771;" d="M239.638,196.259c0.363-0.008,0.545-0.013,0.908-0.024c0.031,1.045,0.046,1.568,0.077,2.613
					c-3.42,0.1-5.132,0.098-8.552-0.007c0.289-0.516,0.432-0.775,0.717-1.293c1.825,0.048,2.737,0.057,4.562,0.045
					c-0.003-0.521-0.005-0.781-0.008-1.301c0.382-0.002,0.573-0.004,0.956-0.009c0.161-0.002,0.25,0.082,0.268,0.254
					c0.022,0.214,0.034,0.321,0.056,0.535c0.027,0.237,0.151,0.354,0.367,0.35c0.185-0.003,0.293-0.124,0.318-0.362
					c0.024-0.215,0.036-0.323,0.061-0.538C239.389,196.35,239.479,196.263,239.638,196.259z"/>
				<path style="fill:#191771;" d="M245.36,205.238c0.034,0.56,0.276,1.066,0.736,1.52c0.498,0.491,1.073,0.715,1.72,0.666
					c1.016-0.076,1.474-0.717,1.372-1.902c-0.184-2.14-0.276-3.21-0.459-5.35c0.978-0.083,1.467-0.129,2.445-0.23
					c0.247,2.398,0.371,3.596,0.618,5.994c0.194,1.885-0.886,2.96-3.246,3.147c-1.236,0.098-2.313-0.447-3.195-1.622
					c0.039,0.66,0.059,0.99,0.098,1.651c-0.972,0.057-1.459,0.082-2.432,0.124c-0.15-3.469-0.225-5.204-0.374-8.673
					c0.972-0.042,1.458-0.067,2.429-0.125C245.187,202.357,245.245,203.318,245.36,205.238z"/>
				<path style="fill:#191771;" d="M254.114,208.354c-0.403-3.449-0.605-5.174-1.008-8.623c0.967-0.112,1.45-0.173,2.415-0.301
					c0.462,3.442,0.692,5.163,1.154,8.605C255.652,208.171,255.139,208.235,254.114,208.354z"/>
				<path style="fill:#191771;" d="M263.883,206.026c-0.196,0.049-1.074,1.308-2.065,1.475c-1.201,0.202-2.086,0.027-2.64-0.494
					c-0.436-0.41-0.736-1.141-0.89-2.182c-0.335-2.266-0.503-3.399-0.838-5.665c0.963-0.142,1.444-0.217,2.406-0.375
					c0.426,2.578,0.639,3.867,1.066,6.445c0.082,0.496,0.371,0.704,0.866,0.62c0.444-0.075,0.623-0.359,0.537-0.848
					c-0.452-2.578-0.677-3.867-1.129-6.444c0.97-0.169,1.455-0.258,2.423-0.443c0.495,2.566,0.742,3.849,1.238,6.415
					c0.095,0.494,0.394,0.693,0.895,0.594c0.442-0.087,0.616-0.376,0.517-0.862c-0.52-2.565-0.781-3.847-1.301-6.412
					c0.962-0.194,1.442-0.295,2.4-0.506c0.494,2.237,0.741,3.355,1.234,5.592c0.23,1.043,0.23,1.829-0.004,2.354
					c-0.299,0.675-1.015,1.133-2.141,1.358C265.548,206.83,264.021,205.992,263.883,206.026z"/>
				<path style="fill:#191771;" d="M265.769,193.189c0.357-0.077,0.535-0.115,0.892-0.194c0.227,1.021,0.341,1.531,0.568,2.552
					c-3.355,0.743-5.043,1.063-8.429,1.601c0.187-0.561,0.279-0.842,0.461-1.404c1.806-0.296,2.707-0.458,4.504-0.813
					c-0.101-0.511-0.152-0.766-0.253-1.277c0.377-0.074,0.565-0.112,0.942-0.189c0.158-0.032,0.26,0.033,0.311,0.199
					c0.063,0.206,0.094,0.309,0.157,0.515c0.072,0.228,0.215,0.319,0.428,0.275c0.182-0.038,0.264-0.176,0.246-0.416
					c-0.016-0.216-0.024-0.324-0.041-0.54C265.541,193.325,265.612,193.223,265.769,193.189z"/>
				<path style="fill:#191771;" d="M264.428,192.668c-0.2-0.969-0.3-1.453-0.501-2.422c0.905-0.186,1.357-0.283,2.259-0.484
					c0.217,0.965,0.325,1.448,0.542,2.413C265.81,192.38,265.35,192.478,264.428,192.668z"/>
				<path style="fill:#191771;" d="M270.638,200.55c1.864-0.443,2.793-0.679,4.645-1.184c0.145,0.531,0.218,0.796,0.363,1.327
					c-0.915,0.249-1.373,0.37-2.29,0.604c0.155,0.606,0.503,1.056,1.05,1.348c0.545,0.29,1.184,0.34,1.907,0.142
					c1.571-0.429,2.085-1.579,1.551-3.41c-0.585-2.006-1.701-2.759-3.366-2.308c-1.09,0.296-1.691,0.948-1.811,1.977
					c-0.915,0.123-1.372,0.18-2.286,0.288c0.117-0.957,0.513-1.767,1.185-2.434c0.672-0.666,1.537-1.141,2.607-1.432
					c1.501-0.408,2.789-0.343,3.89,0.219c1.052,0.537,1.792,1.454,2.197,2.761c0.403,1.297,0.301,2.48-0.328,3.544
					c-0.652,1.102-1.785,1.886-3.372,2.318c-1.664,0.453-3.043,0.257-4.105-0.564C271.588,203.062,270.983,201.994,270.638,200.55z"
					/>
				<path style="fill:#191771;" d="M282.046,197.721c-0.255-0.786,0.371-2.217,0.371-2.217c-0.006-0.012-0.233,0.011-0.354,0.027
					c-0.285,0.039-0.521,0.078-0.685,0.131c-0.115-0.355-0.173-0.533-0.288-0.888c0.271-0.359,0.783-0.804,1.517-1.341
					c0.896-0.656,1.741-1.137,2.535-1.423c2.549-0.92,4.135-0.611,4.784,1.036c0.912,2.314,1.368,3.472,2.28,5.786
					c-0.968,0.381-1.454,0.567-2.427,0.931c-0.821-2.192-1.231-3.288-2.052-5.481c-0.36-0.962-1.129-1.216-2.315-0.79
					c-0.546,0.196-0.947,0.486-1.208,0.859c-0.282,0.404-0.354,0.834-0.199,1.287c0.758,2.206,1.137,3.309,1.896,5.514
					c-0.986,0.338-1.481,0.503-2.471,0.824C282.875,200.274,282.598,199.423,282.046,197.721z"/>
				<path style="fill:#191771;" d="M291.758,191.498c-0.39-0.282-0.584-0.424-0.97-0.709c0.796-0.982,1.698-1.691,2.726-2.137
					c1.403-0.609,2.335-0.411,2.806,0.627c1.189,2.621,1.784,3.932,2.973,6.553c-0.962,0.436-1.445,0.65-2.413,1.069
					c-0.97-2.239-1.454-3.359-2.424-5.598c-0.031-0.071-0.062-0.144-0.093-0.216c-0.29-0.671-0.772-0.861-1.445-0.577
					c-0.263,0.112-0.513,0.282-0.755,0.515C292.079,191.108,291.943,191.263,291.758,191.498z"/>
				<path style="fill:#191771;" d="M304.003,186.512c-0.49-0.489-1.16-0.51-2.024-0.071c-1.041,0.529-1.432,1.048-1.168,1.583
					c0.171,0.347,0.819,0.367,1.946,0.038c1.605-0.47,2.571-0.74,2.899-0.768c1.2-0.103,2.03,0.239,2.478,1.057
					c0.482,0.881,0.441,1.791-0.151,2.713c-0.511,0.795-1.361,1.5-2.534,2.096c-2.153,1.094-3.831,1.245-4.955,0.508
					c-0.267-0.175-0.462-0.362-0.584-0.559c0.836-0.537,1.252-0.809,2.078-1.36c0.482,0.634,1.411,0.621,2.767-0.069
					c1.115-0.567,1.522-1.135,1.237-1.679c-0.203-0.388-0.842-0.41-1.911-0.09c-1.552,0.464-2.525,0.68-2.913,0.691
					c-1.178,0.035-1.946-0.344-2.305-1.102c-0.432-0.915-0.394-1.777,0.103-2.589c0.443-0.723,1.215-1.355,2.31-1.911
					c0.848-0.431,1.671-0.66,2.47-0.675c0.888-0.016,1.614,0.247,2.162,0.791C305.15,185.68,304.769,185.96,304.003,186.512z"/>
				<path style="fill:#191771;" d="M316.063,180.106c1.252,1.931,1.878,2.897,3.131,4.827c-0.907,0.589-1.362,0.88-2.277,1.451
					c-1.239-1.986-1.858-2.979-3.096-4.966c-0.543-0.871-1.337-0.974-2.392-0.334c-1.122,0.681-1.43,1.451-0.91,2.336
					c0.32,0.545,0.481,0.818,0.801,1.364c0.172-0.782,0.69-1.431,1.558-1.96c0.353,0.58,0.53,0.87,0.883,1.451
					c-0.137,0.06-0.268,0.128-0.386,0.199c-0.491,0.297-0.791,0.709-0.916,1.227c-0.114,0.475-0.058,0.925,0.186,1.34
					c0.335,0.57,0.503,0.855,0.838,1.426c-0.916,0.539-1.375,0.804-2.298,1.325c-1.131-2.004-1.697-3.007-2.828-5.011
					c-0.574-1.018-0.628-1.948-0.17-2.789c0.396-0.726,1.221-1.454,2.477-2.216c0.53-0.322,1.044-0.587,1.54-0.782
					c0.168-0.066,0.513-0.123,0.57-0.194c0.11-0.136,0.229-0.821,0.585-1.275c0.326-0.415,0.693-0.754,1.098-1.02
					c0.439,0.514,0.658,0.771,1.099,1.284c-0.213,0.106-0.391,0.205-0.529,0.295c-0.374,0.244-0.653,0.621-0.622,0.673
					c0.039,0.065,0.395,0.146,0.535,0.231C315.363,179.247,315.747,179.618,316.063,180.106z"/>
				<path style="fill:#191771;" d="M309.946,176.871c-0.263-0.336-0.286-0.733-0.065-1.173c0.192-0.383,0.511-0.713,0.946-0.989
					c1.017-0.646,1.761-0.61,2.243,0.129c0.486,0.745,0.216,1.458-0.821,2.116c-2.532,1.607-3.815,2.374-6.41,3.835
					c-0.004-0.59-0.007-0.885-0.017-1.474C307.485,178.368,308.31,177.879,309.946,176.871z M312.104,175.464
					c-0.166-0.26-0.439-0.268-0.817-0.028c-0.416,0.264-0.541,0.524-0.377,0.786c0.164,0.261,0.454,0.263,0.873-0.003
					C312.164,175.977,312.27,175.723,312.104,175.464z"/>
				<path style="fill:#191771;" d="M318.717,179.885c-0.46-0.686-0.225-2.253-0.225-2.253c-0.009-0.009-0.228,0.079-0.342,0.13
					c-0.271,0.121-0.49,0.226-0.639,0.326c-0.208-0.31-0.312-0.465-0.521-0.775c0.171-0.426,0.557-1.005,1.138-1.74
					c0.708-0.896,1.411-1.609,2.119-2.121c2.269-1.642,3.915-1.815,4.992-0.411c1.514,1.973,2.271,2.959,3.785,4.932
					c-0.855,0.658-1.284,0.982-2.148,1.623c-1.392-1.882-2.088-2.822-3.48-4.704c-0.61-0.825-1.436-0.845-2.491-0.084
					c-0.486,0.35-0.804,0.746-0.963,1.188c-0.17,0.473-0.125,0.91,0.149,1.302c1.334,1.913,2.001,2.869,3.334,4.782
					c-0.882,0.616-1.325,0.92-2.215,1.519C320.213,182.114,319.715,181.371,318.717,179.885z"/>
				<path style="fill:#191771;" d="M333.429,169.223c-0.213,0.185-0.32,0.277-0.533,0.461c-0.368,0.317-0.795,0.585-1.271,0.797
					c-0.595,0.265-1.043,0.313-1.324,0.153c0.103-0.757,0.152-1.136,0.246-1.891c0.18,0.16,0.508,0.149,0.978-0.026
					c0.389-0.145,0.717-0.333,0.98-0.561c-0.86-0.992-1.289-1.488-2.149-2.479c0.788-0.685,1.18-1.031,1.959-1.733
					c0.877,0.976,1.316,1.464,2.194,2.44c0.424-0.382,0.635-0.574,1.056-0.961c0.382,0.416,0.573,0.625,0.955,1.041
					c-0.425,0.39-0.638,0.584-1.066,0.97c0.276,0.307,0.414,0.46,0.69,0.767c1.423,1.582,0.967,3.458-1.444,5.498
					c-1.231,1.042-2.295,1.618-3.166,1.753c-0.993,0.153-1.855-0.239-2.588-1.166c-1.421-1.796-2.131-2.695-3.552-4.491
					c0.803-0.637,1.203-0.959,1.997-1.613c1.488,1.813,2.232,2.72,3.719,4.533c0.582,0.71,1.402,0.637,2.443-0.242
					c1.035-0.875,1.246-1.673,0.644-2.367C333.889,169.753,333.736,169.577,333.429,169.223z"/>
				<path style="fill:#191771;" d="M335.186,163.636c-0.474-0.118-0.711-0.177-1.183-0.299c0.444-1.238,1.086-2.263,1.935-3.083
					c1.162-1.124,2.135-1.299,2.941-0.493c2.035,2.035,3.052,3.052,5.087,5.087c-0.79,0.79-1.188,1.181-1.989,1.953
					c-1.693-1.756-2.54-2.634-4.233-4.391c-0.054-0.056-0.109-0.113-0.163-0.169c-0.507-0.526-1.039-0.521-1.599,0.01
					c-0.22,0.209-0.406,0.468-0.561,0.781C335.366,163.143,335.287,163.342,335.186,163.636z"/>
			</g>
		</g>
	</g>
</g>
</svg>
